PathFileType	4	(X/Y/Z)	I12_1_OpenSim.trc																																																																																																																						
DataRate	CameraRate	NumFrames	NumMarkers	Units	OrigDataRate	OrigDataStartFrame	OrigNumFrames																																																																																																																		
100	100	9	40	mm	100	2251	3000																																																																																																																		
Frame#	Time	R.ASIS			R.PSIS			S2			L.PSIS			L.ASIS			R.TH1			R.TH2			R.TH3			R.MKnee			R.Knee			R.SH1			R.SH2			R.SH3			R.SH4			R.Ankle			R.MAnkle			R.Heel			R.MT5			R.MT1			L.TH1			L.TH2			L.TH3			L.TH4			L.MKnee			L.Knee			L.SH1			L.SH2			L.SH3			L.Ankle			L.MAnkle			L.Heel			L.MT5			L.MT1			R.Acr			L.Acr			C7			T10			Clav			Sternum			R.Back		
		X1	Y1	Z1	X2	Y2	Z2	X3	Y3	Z3	X4	Y4	Z4	X5	Y5	Z5	X6	Y6	Z6	X7	Y7	Z7	X8	Y8	Z8	X9	Y9	Z9	X10	Y10	Z10	X11	Y11	Z11	X12	Y12	Z12	X13	Y13	Z13	X14	Y14	Z14	X15	Y15	Z15	X16	Y16	Z16	X17	Y17	Z17	X18	Y18	Z18	X19	Y19	Z19	X20	Y20	Z20	X21	Y21	Z21	X22	Y22	Z22	X23	Y23	Z23	X24	Y24	Z24	X25	Y25	Z25	X26	Y26	Z26	X27	Y27	Z27	X28	Y28	Z28	X29	Y29	Z29	X30	Y30	Z30	X31	Y31	Z31	X32	Y32	Z32	X33	Y33	Z33	X34	Y34	Z34	X35	Y35	Z35	X36	Y36	Z36	X37	Y37	Z37	X38	Y38	Z38	X39	Y39	Z39	X40	Y40	Z40
2251	22.5	876.5287	1057.8224	-438.2287	644.3676	1046.2793	-514.6036	623.9913	1044.3164	-558.6738	639.8388	1046.5786	-611.019	843.0456	1043.3867	-727.4291	934.5482	743.1807	-417.4188	858.7577	714.9597	-404.1367	894.2471	612.6289	-423.0407	941.2287	509.5232	-554.8045	957.7449	512.4014	-439.0409	977.4528	345.8943	-438.5205	981.1437	234.7652	-457.3455	897.7104	340.6524	-417.9521	906.6836	228.1507	-428.0895	922.9075	75.057	-442.1767	958.5944	93.6285	-536.2285	864.5768	33.0467	-499.738	1037.4446	40.3267	-413.5174	1087.9517	41.9312	-501.1261	811.5285	735.8856	-740.8597	792.8686	628.254	-736.0987	728.4822	745.8408	-749.6713	713.6453	637.3309	-735.7138	750.4659	473.8132	-625.0197	731.1022	490.6846	-734.177	639.8681	386.5305	-747.6816	584.1185	446.6074	-737.8147	506.9135	369.0446	-728.3513	398.8849	186.6378	-731.4846	432.2414	171.6029	-637.5627	334.5164	214.1873	-671.5165	423.6709	72.437	-752.1751	461.0621	58.6489	-647.3851	814.0143	1446.8489	-407.0042	795.0065	1447.0974	-723.5171	750.4607	1482.8036	-566.2034	718.5228	1158.8928	-571.1441	891.5438	1393.5608	-572.2323	922.9725	1248.8758	-567.2724	677.1882	1378.9369	-485.1436
2252	22.51	877.5872	1059.786	-436.1371	645.1124	1047.9965	-512.4429	624.6452	1045.8344	-556.4638	640.3405	1047.9547	-608.8636	843.3218	1045.2102	-725.3834	932.3345	742.8735	-415.4653	855.9711	715.9189	-402.3914	889.8033	613.0455	-421.4573	935.15	509.4141	-553.3942	951.6741	511.7916	-437.6443	969.2471	344.933	-437.5047	971.5355	233.7966	-456.7041	889.4337	340.6589	-416.9884	896.9928	228.0293	-427.4742	911.1116	75.0453	-442.0822	946.8094	93.6263	-536.0947	852.652	33.0801	-499.689	1025.4666	40.2296	-413.2393	1075.9868	41.6246	-500.9678	818.2396	737.1521	-739.7518	802.62	629.0613	-735.9235	734.9999	744.8945	-748.4305	723.1295	635.9797	-735.4366	765.2482	472.9407	-625.6405	744.5877	490.4011	-734.7967	651.125	388.7927	-748.1157	597.3159	450.3406	-736.8477	518.1047	374.8994	-726.7982	404.9389	197.5548	-730.7174	437.5697	180.1096	-636.9949	343.0792	230.0018	-670.3517	421.4228	81.765	-751.1053	457.9657	63.781	-647.3183	815.749	1449.2033	-405.6755	794.558	1448.563	-722.0391	750.9601	1484.5895	-564.472	719.31	1160.6904	-568.6355	892.1036	1395.6487	-571.1167	923.7333	1251.0701	-566.0311	678.5252	1380.8325	-482.496
2253	22.52	878.3532	1061.6517	-434.1472	645.5447	1049.5706	-510.4046	624.9894	1047.2075	-554.3857	640.5371	1049.1874	-606.8286	843.3229	1047.0062	-723.4476	929.6683	742.5316	-413.6182	852.7582	716.8257	-400.7426	884.9416	613.447	-419.9194	928.7143	509.2689	-551.9943	945.1347	511.1879	-436.266	960.643	344.0266	-436.4861	961.6256	232.8979	-456.0531	880.7866	340.6624	-416.0661	886.9921	227.9277	-426.8829	899.2251	75.0223	-441.994	934.9269	93.6504	-535.9718	840.6621	33.1088	-499.7023	1013.4465	40.1917	-412.9559	1063.9351	41.4795	-500.7764	824.955	738.6137	-738.7623	812.4675	630.1521	-735.6962	741.5641	744.0681	-747.2026	732.7704	634.8578	-735.0344	780.2048	472.6887	-625.9646	758.4171	490.5081	-735.252	663.2065	391.2774	-748.3655	611.2129	454.1377	-735.892	530.1848	380.7119	-725.2944	412.4996	208.3834	-729.8283	444.366	188.8314	-636.2148	353.1356	245.2537	-669.168	421.3573	91.5035	-749.7394	457.0446	69.5026	-647.2333	817.4953	1451.4647	-404.4564	793.9838	1449.9215	-720.6971	751.4415	1486.3685	-562.8355	719.8711	1162.4701	-566.1875	892.5901	1397.6102	-570.1463	924.2621	1253.0836	-564.9758	679.7871	1382.7639	-479.892
2254	22.53	878.8406	1063.4132	-432.2506	645.7109	1051.014	-508.5118	625.0692	1048.4605	-552.4655	640.4806	1050.3131	-604.9355	843.0963	1048.7831	-721.618	926.6073	742.1643	-411.8949	849.1926	717.6908	-399.1853	879.7314	613.8381	-418.4237	921.9373	509.0791	-550.6129	938.1959	510.5972	-434.9129	951.7097	343.1737	-435.4775	951.4714	232.0711	-455.4046	871.8391	340.6656	-415.167	876.7489	227.8525	-426.2978	887.2838	74.9852	-441.8971	922.984	93.6866	-535.8485	828.6251	33.1413	-499.7544	1001.4008	40.1726	-412.6793	1051.8293	41.4281	-500.5569	831.564	740.3314	-737.8668	822.2698	631.6013	-735.4043	748.068	743.4434	-745.9323	742.4404	634.0513	-734.4425	795.1301	473.1335	-625.9539	772.4366	491.0772	-735.5214	675.9727	393.9598	-748.3939	625.6246	457.9771	-735.002	542.9748	386.4229	-723.9407	421.3796	218.8153	-728.8351	452.5349	197.558	-635.2617	364.2784	259.4382	-667.9828	423.6975	101.2337	-748.1329	458.6621	75.6551	-647.0915	819.2188	1453.6307	-403.3605	793.3007	1451.1742	-719.4866	751.8922	1488.1279	-561.3022	720.2234	1164.2188	-563.8163	892.9988	1399.4299	-569.319	924.5659	1254.8994	-564.093	680.957	1384.7264	-477.3636
2255	22.54	879.0806	1065.0627	-430.4389	645.6693	1052.3558	-506.7686	624.94	1049.6349	-550.709	640.2303	1051.385	-603.1904	842.6866	1050.5526	-719.8851	923.207	741.773	-410.3014	845.3438	718.5278	-397.7093	874.2321	614.2192	-416.9682	914.8472	508.8449	-549.2592	930.9147	510.0209	-433.5881	942.5029	342.3684	-434.4897	941.1199	231.3152	-454.7675	862.6431	340.6669	-414.2898	866.3132	227.8086	-425.7222	875.3062	74.9374	-441.7936	911.0088	93.727	-535.7241	816.5604	33.1783	-499.8233	989.3352	40.1515	-412.4163	1039.6999	41.4174	-500.3127	837.9703	742.3588	-737.035	831.9127	633.4692	-735.0392	754.4197	743.0851	-744.5779	752.0314	633.623	-733.6261	809.8774	474.2966	-625.5981	786.5094	492.1542	-735.5933	689.2799	396.8028	-748.1765	640.3684	461.8294	-734.2319	556.2941	391.9677	-722.8265	431.3635	228.5632	-727.7602	461.9423	206.0634	-634.1719	376.065	272.0815	-666.81	428.6088	110.5481	-746.3765	463.1148	82.0625	-646.8338	820.8857	1455.709	-402.4009	792.5209	1452.3281	-718.3994	752.2989	1489.856	-559.8766	720.396	1165.932	-561.5316	893.324	1401.1038	-568.6284	924.6765	1256.5194	-563.3571	682.0226	1386.7142	-474.9388
2256	22.55	879.114	1066.5903	-428.7036	645.4763	1053.6334	-505.1636	624.6578	1050.7806	-549.1034	639.8433	1052.459	-601.5847	842.1376	1052.328	-718.2342	919.5194	741.3508	-408.8321	841.2696	719.351	-396.3061	868.4926	614.5872	-415.5561	907.4854	508.5698	-547.942	923.3398	509.456	-432.2936	933.0658	341.6057	-433.5284	930.6066	230.6267	-454.1429	853.2298	340.6675	-413.4443	855.7165	227.8023	-425.1683	863.2976	74.8859	-441.6972	899.0206	93.7687	-535.6037	804.4835	33.2172	-499.8927	977.2516	40.1202	-412.1698	1027.567	41.4103	-500.0477	844.1	744.7372	-736.2352	841.3149	635.7976	-734.5952	760.5552	743.0394	-743.1188	761.4625	633.611	-732.5848	824.3541	476.1534	-624.917	800.5171	493.7581	-735.4644	702.9851	399.7645	-747.7037	655.261	465.6589	-733.6169	569.9677	397.2701	-722.0078	442.2615	237.3761	-726.6252	472.4441	214.1217	-632.9741	388.1125	282.8	-665.6644	436.1829	119.0954	-744.58	470.5707	88.5397	-646.3852	822.4653	1457.7111	-401.5864	791.6534	1453.3937	-717.4261	752.6501	1491.5427	-558.5623	720.4215	1167.6116	-559.3366	893.5608	1402.6377	-568.0651	924.6345	1257.9631	-562.7399	682.976	1388.7181	-472.6387
2257	22.56	878.9822	1067.9844	-427.0353	645.1783	1054.8812	-503.6765	624.2716	1051.9421	-547.6236	639.369	1053.582	-600.0993	841.4899	1054.1178	-716.6492	915.5971	740.8876	-407.4676	837.011	720.1687	-394.9729	862.5503	614.9393	-414.1952	899.8994	508.2595	-546.6683	915.5144	508.8977	-431.0288	923.434	340.883	-432.5918	919.9614	229.9992	-453.5231	843.6181	340.6733	-412.6429	844.9801	227.8388	-424.647	851.2619	74.8387	-441.6227	887.0333	93.8108	-535.4926	792.4043	33.2575	-499.9541	965.1539	40.0758	-411.9396	1015.4427	41.3832	-499.7689	849.9102	747.4924	-735.4386	850.4291	638.6074	-734.0702	766.4438	743.3365	-741.5616	770.6829	634.0339	-731.3561	838.5057	478.6508	-623.9514	814.3612	495.8826	-735.1403	716.9495	402.8037	-746.982	670.1235	469.4187	-733.1638	583.8361	402.2329	-721.4945	453.945	245.038	-725.4486	483.923	221.5093	-631.6919	400.1846	291.3383	-664.559	446.4078	126.5951	-742.8398	481.0179	94.8809	-645.6763	823.9319	1459.6492	-400.9172	790.7076	1454.3831	-716.5565	752.9363	1493.1805	-557.3611	720.3285	1169.2582	-557.2276	893.707	1404.046	-567.617	924.478	1259.2629	-562.2157	683.8135	1390.7241	-470.4771
2258	22.57	878.7192	1069.2349	-425.424	644.8058	1056.123	-502.2851	623.8177	1053.1492	-546.2395	638.8435	1054.7837	-598.7101	840.7806	1055.9255	-715.1138	911.494	740.3744	-406.1763	832.5927	720.9768	-393.7104	856.4315	615.2752	-412.8945	892.1421	507.9219	-545.4432	907.4768	508.3415	-429.7902	913.6425	340.1998	-431.6717	909.2129	229.4246	-452.8964	833.8279	340.6923	-411.8914	834.1252	227.9193	-424.1625	839.2044	74.803	-441.5792	875.0572	93.8541	-535.3929	780.3288	33.3027	-500.0039	953.05	40.0178	-411.7234	1003.3331	41.3224	-499.4876	855.3953	750.6339	-734.6219	859.2363	641.899	-733.4667	772.0859	743.9943	-739.9438	779.6702	634.901	-730.0149	852.2967	481.725	-622.752	827.9633	498.5004	-734.635	731.0466	405.8755	-746.0383	684.7938	473.0417	-732.856	597.7686	406.7299	-721.251	466.3478	251.3618	-724.2509	496.3094	227.9932	-630.3536	412.2327	297.5721	-663.5007	459.1332	132.823	-741.2144	494.2518	100.8355	-644.6821	825.2672	1461.5347	-400.3822	789.694	1455.3091	-715.7782	753.1523	1494.7629	-556.2712	720.1392	1170.8683	-555.1955	893.7631	1405.3475	-567.2696	924.2371	1260.4576	-561.7615	684.5344	1392.7141	-468.4618
2259	22.58	878.3479	1070.3363	-423.859	644.3745	1057.3683	-500.9712	623.3174	1054.4127	-544.9261	638.2883	1056.073	-597.3956	840.0403	1057.7501	-713.6136	907.2537	739.8084	-404.9247	828.0268	721.761	-392.5212	850.1532	615.5958	-411.6585	884.2658	507.5668	-544.2686	899.2602	507.7849	-428.5721	903.7286	339.5544	-430.759	898.391	228.8955	-452.2549	823.888	340.7314	-411.1846	823.1768	228.0404	-423.7113	827.1315	74.7847	-441.5701	863.1011	93.8998	-535.3043	768.2607	33.3589	-500.0412	940.9498	39.9459	-411.5171	991.2404	41.2227	-499.2171	860.5828	754.1539	-733.7694	867.7367	645.6528	-732.7902	777.5059	745.0204	-738.3292	788.4231	636.2157	-728.6601	865.6962	485.3131	-621.3721	841.2621	501.5671	-733.9685	745.1751	408.9207	-744.9237	699.1423	476.4353	-732.6664	611.6741	410.6086	-721.2144	479.442	256.1908	-723.0619	509.5748	233.3384	-629.0002	424.3687	301.4889	-662.4868	474.0675	137.6046	-739.7261	509.9209	106.1098	-643.4489	826.4607	1463.3784	-399.9618	788.6241	1456.1807	-715.078	753.2964	1496.2836	-555.2874	719.871	1172.4342	-553.2289	893.7333	1406.5627	-567.0085	923.9329	1261.5834	-561.3563	685.1414	1394.6669	-466.5952
